          <svg width="24" height="24" fill="#000000" viewBox="0 0 24 24" xmlns="http://www.w3.org/2000/svg" className="fb">
           <path
                fill="#000000"
                d="M22.675 0H1.325C.593 0 0 .593 0 1.325v21.35C0 23.407.593 24 1.325 24H12.82v-9.294H9.692v-3.622h3.128V8.413c0-3.1 1.893-4.785 4.656-4.785 1.325 0 2.463.099 2.794.143v3.24h-1.917c-1.505 0-1.796.715-1.796 1.763v2.31h3.59l-.467 3.623h-3.123V24h6.116c.73 0 1.325-.593 1.325-1.325V1.325C24 .593 23.407 0 22.675 0z"
           ></path>
        </svg>
